<svg xmlns="http://www.w3.org/2000/svg" version="1.1" xmlns:xlink="http://www.w3.org/1999/xlink" xmlns:svgjs="http://svgjs.dev/svgjs" width="2000" height="1247" viewBox="0 0 2000 1247"><g transform="matrix(1,0,0,1,-1.2121212121212466,0.504858299595071)"><svg viewBox="0 0 396 247" data-background-color="#ffffff" preserveAspectRatio="xMidYMid meet" height="1247" width="2000" xmlns="http://www.w3.org/2000/svg" xmlns:xlink="http://www.w3.org/1999/xlink"><g id="tight-bounds" transform="matrix(1,0,0,1,0.2400000000000091,-0.09999999999999432)"><svg viewBox="0 0 395.52 247.2" height="247.2" width="395.52"><g><svg></svg></g><g><svg viewBox="0 0 395.52 247.2" height="247.2" width="395.52"><g><path xmlns="http://www.w3.org/2000/svg" d="M55.039 247.2l35.925-62.224 0 7.099-29.664 51.381h272.92l-29.664-51.381v-7.099l35.925 62.224zM197.76 0l26.403 45.732-4.098 0-22.305-38.633-22.305 38.633-4.098 0z" fill="#ffffff" fill-rule="nonzero" stroke="none" stroke-width="1" stroke-linecap="butt" stroke-linejoin="miter" stroke-miterlimit="10" stroke-dasharray="" stroke-dashoffset="0" font-family="none" font-weight="none" font-size="none" text-anchor="none" style="mix-blend-mode: normal" data-fill-palette-color="tertiary"></path></g><g transform="matrix(1,0,0,1,113.21201005025127,67.97999999999999)"><svg viewBox="0 0 169.09597989949745 111.24" height="111.24" width="169.09597989949745"><g><svg viewBox="0 0 169.09597989949745 111.24" height="111.24" width="169.09597989949745"><g><svg viewBox="0 0 169.09597989949745 111.24" height="111.24" width="169.09597989949745"><g><svg viewBox="0 0 169.09597989949745 111.24" height="111.24" width="169.09597989949745"><g id="textblocktransform"><svg viewBox="0 0 169.09597989949745 111.24" height="111.24" width="169.09597989949745" id="textblock"><g><svg viewBox="0 0 169.09597989949745 111.24" height="111.24" width="169.09597989949745"><g transform="matrix(1,0,0,1,0,0)"><svg width="169.09597989949745" viewBox="-1.5 -36.95000076293945 61.5 40.79999923706055" height="111.24" data-palette-color="#000000"><path d="M11.8 0.85L11.8 0.85Q9.05 0.85 6.23 0.18 3.4-0.5 1.5-1.6L1.5-1.6 1.8-8.55 3.25-8.55 4.8-5.1Q5.5-3.65 6.25-2.7 7-1.75 8.25-1.25L8.25-1.25Q9.1-0.9 9.88-0.78 10.65-0.65 11.6-0.65L11.6-0.65Q14.65-0.65 16.43-2.23 18.2-3.8 18.2-6.4L18.2-6.4Q18.2-8.75 16.98-10.1 15.75-11.45 13.05-12.7L13.05-12.7 11-13.6Q6.8-15.45 4.38-17.9 1.95-20.35 1.95-24.4L1.95-24.4Q1.95-27.4 3.48-29.53 5-31.65 7.7-32.8 10.4-33.95 14-33.95L14-33.95Q16.65-33.95 18.98-33.25 21.3-32.55 23.05-31.35L23.05-31.35 22.7-25.15 21.25-25.15 19.4-28.9Q18.6-30.55 17.88-31.28 17.15-32 16.1-32.2L16.1-32.2Q15.5-32.3 15.08-32.35 14.65-32.4 13.95-32.4L13.95-32.4Q11.5-32.4 9.73-30.98 7.95-29.55 7.95-27.05L7.95-27.05Q7.95-24.65 9.3-23.15 10.65-21.65 13.2-20.5L13.2-20.5 15.45-19.55Q20.3-17.45 22.4-15.08 24.5-12.7 24.5-9L24.5-9Q24.5-4.6 21.18-1.88 17.85 0.85 11.8 0.85ZM35.4 0L27.7 0 27.7-1.05 29.15-1.45Q30.1-1.7 30.47-2.4 30.85-3.1 30.85-4.1L30.85-4.1 30.85-28.3Q30.4-29.25 30.07-29.73 29.75-30.2 29.4-30.55 29.05-30.9 28.45-31.35L28.45-31.35 27.55-32 27.55-33.05 36.1-33.05 52.7-10.35 52.7-28.9Q52.7-29.9 52.37-30.65 52.05-31.4 51.05-31.65L51.05-31.65 49.55-32 49.55-33.05 57-33.05 57-32 55.75-31.65Q54.8-31.35 54.57-30.63 54.35-29.9 54.35-28.9L54.35-28.9 54.35 0.2 51.55 0.2 32.5-26 32.5-4.15Q32.5-3.1 32.8-2.4 33.1-1.7 34.05-1.45L34.05-1.45 35.4-1.05 35.4 0Z" opacity="1" transform="matrix(1,0,0,1,0,0)" fill="#ffffff" class="undefined-text-0" data-fill-palette-color="primary" id="text-0"></path></svg></g></svg></g></svg></g></svg></g><g></g></svg></g></svg></g></svg></g></svg></g><defs></defs></svg><rect width="395.52" height="247.2" fill="none" stroke="none" visibility="hidden"></rect></g></svg></g></svg>