<svg xmlns="http://www.w3.org/2000/svg" version="1.1" xmlns:xlink="http://www.w3.org/1999/xlink" xmlns:svgjs="http://svgjs.dev/svgjs" width="128" height="128" viewBox="0 0 128 128"><g transform="matrix(0.8046875,0,0,0.8046875,12.333870967741937,12.333870967741937)"><svg viewBox="0 0 155 155" data-background-color="#ffffff" preserveAspectRatio="xMidYMid meet" height="128" width="128" xmlns="http://www.w3.org/2000/svg" xmlns:xlink="http://www.w3.org/1999/xlink"><g id="tight-bounds" transform="matrix(1,0,0,1,0.25,0.25)"><svg viewBox="0 0 154.5 154.5" height="154.5" width="154.5"><g><svg></svg></g><g><svg viewBox="0 0 154.5 154.5" height="154.5" width="154.5"><g><path d="M0 144.15l53.543-92.739v4.437l-49.631 85.963h146.676l-49.631-85.963v-4.437l53.543 92.739zM77.25 10.35l21.26 36.823-2.561 0-18.699-32.387-18.699 32.387-2.561 0z" fill="#ffffff" fill-rule="nonzero" stroke="none" stroke-width="1" stroke-linecap="butt" stroke-linejoin="miter" stroke-miterlimit="10" stroke-dasharray="" stroke-dashoffset="0" font-family="none" font-weight="none" font-size="none" text-anchor="none" style="mix-blend-mode: normal" data-fill-palette-color="tertiary"></path></g><g transform="matrix(1,0,0,1,62.13617336683417,55.766774999999996)"><svg viewBox="0 0 30.227653266331657 42.96645" height="42.96645" width="30.227653266331657"><g><svg viewBox="0 0 30.227653266331657 42.96645" height="42.96645" width="30.227653266331657"><g><svg viewBox="0 0 30.227653266331657 42.96645" height="42.96645" width="30.227653266331657"><g id="textblocktransform"><svg viewBox="0 0 30.227653266331657 42.96645" height="42.96645" width="30.227653266331657" id="textblock"><g><svg viewBox="0 0 30.227653266331657 42.96645" height="42.96645" width="30.227653266331657"><g transform="matrix(1,0,0,1,0,0)"><svg width="30.227653266331657" viewBox="-1.5 -36.95 29 40.800000000000004" height="42.96645" data-palette-color="#000000"><path d="M11.8 0.85L11.8 0.85Q9.05 0.85 6.23 0.18 3.4-0.5 1.5-1.6L1.5-1.6 1.8-8.55 3.25-8.55 4.8-5.1Q5.5-3.65 6.25-2.7 7-1.75 8.25-1.25L8.25-1.25Q9.1-0.9 9.88-0.78 10.65-0.65 11.6-0.65L11.6-0.65Q14.65-0.65 16.43-2.23 18.2-3.8 18.2-6.4L18.2-6.4Q18.2-8.75 16.98-10.1 15.75-11.45 13.05-12.7L13.05-12.7 11-13.6Q6.8-15.45 4.38-17.9 1.95-20.35 1.95-24.4L1.95-24.4Q1.95-27.4 3.48-29.53 5-31.65 7.7-32.8 10.4-33.95 14-33.95L14-33.95Q16.65-33.95 18.98-33.25 21.3-32.55 23.05-31.35L23.05-31.35 22.7-25.15 21.25-25.15 19.4-28.9Q18.6-30.55 17.88-31.28 17.15-32 16.1-32.2L16.1-32.2Q15.5-32.3 15.08-32.35 14.65-32.4 13.95-32.4L13.95-32.4Q11.5-32.4 9.73-30.98 7.95-29.55 7.95-27.05L7.95-27.05Q7.95-24.65 9.3-23.15 10.65-21.65 13.2-20.5L13.2-20.5 15.45-19.55Q20.3-17.45 22.4-15.08 24.5-12.7 24.5-9L24.5-9Q24.5-4.6 21.18-1.88 17.85 0.85 11.8 0.85Z" opacity="1" transform="matrix(1,0,0,1,0,0)" fill="#ffffff" class="undefined-text-0" data-fill-palette-color="primary" id="text-0"></path></svg></g></svg></g></svg></g></svg></g><g></g></svg></g></svg></g></svg></g><defs></defs></svg><rect width="154.5" height="154.5" fill="none" stroke="none" visibility="hidden"></rect></g></svg></g></svg>